<svg width="116" height="64" viewBox="0 0 116 64" fill="none" xmlns="http://www.w3.org/2000/svg">
<path d="M46.0234 30.6089C43.4892 30.6089 42.59 29.3911 42.59 27.0365V13.8836C42.59 11.4479 43.4892 10.3112 46.0234 10.3112H47.2496C49.7838 10.3112 50.683 11.5291 50.683 13.8836V16.6441H60.8198V24.1949H50.683V26.9553C50.683 29.3911 49.7838 30.5277 47.2496 30.5277H46.0234V30.6089ZM13.8148 24.5196L16.5125 9.82409H17.0847L19.8642 24.5196H13.8148ZM0.0812073 40.1894H10.7902L12.0981 33.2882H21.4991L22.8071 40.1894H33.9248L32.6985 34.1813C34.6605 38.5656 38.9114 40.839 45.4512 40.839H46.6774C55.3427 40.839 60.0023 36.8606 60.738 29.9594V40.1894H86.652V33.6942C88.8592 38.5656 93.2736 40.839 99.9769 40.839H101.53C111.095 40.839 115.999 35.9675 115.999 26.7118V0.730717H104.718V27.1989C104.718 29.4723 103.901 30.6089 101.448 30.6089H100.059C97.5245 30.6089 96.7887 29.3911 96.7887 27.1989V0.649527H85.5076V29.3911H72.1009V0.649527H60.738V10.4736C60.0023 3.89716 55.7514 0 47.2496 0H45.4512C35.7232 0 31.3088 4.87145 31.3088 13.8836V26.9553V27.6861L25.6682 0.649527H8.33772L0.0812073 40.1894Z" fill="#0055AA"/>
<path d="M2.907 58.822C3.952 59.81 5.073 60.285 6.403 60.285C7.86601 60.285 9.139 59.696 10.184 58.537C11.343 57.264 11.989 55.535 11.989 53.749C11.989 51.716 11.343 50.025 10.07 48.695C8.987 47.555 7.828 47.042 6.403 47.042C3.287 47.042 0.798004 50.006 0.798004 53.73C0.798004 55.763 1.52 57.511 2.907 58.822ZM6.403 59.544C4.104 59.544 2.945 57.511 2.945 53.502C2.945 49.702 4.085 47.802 6.384 47.802C8.721 47.802 9.842 49.797 9.842 53.882C9.842 57.53 8.626 59.544 6.403 59.544Z" fill="#EF404E"/>
<path d="M13.694 60H18.406V59.335H17.95C16.715 59.335 16.696 59.316 16.696 58.328V57.435C16.696 55.801 17.171 54.186 17.95 53.16C18.159 52.875 18.558 52.609 18.748 52.609C18.824 52.609 18.881 52.666 18.881 52.704C18.881 52.761 18.862 52.78 18.729 52.97C18.596 53.16 18.539 53.331 18.539 53.521C18.539 54.034 18.976 54.452 19.489 54.452C20.078 54.452 20.515 53.939 20.515 53.217C20.515 52.362 19.888 51.754 19.033 51.754C17.874 51.754 17.038 52.818 16.506 54.965L16.487 54.376L16.468 53.407C16.449 52.609 16.449 52.324 16.411 51.792L16.145 51.811L15.499 51.849C15.119 51.868 14.815 51.906 14.625 51.906L13.599 51.925V52.571H13.979C14.549 52.571 14.872 52.647 15.024 52.818C15.176 52.989 15.195 52.989 15.195 54.509V57.435C15.195 59.069 15.195 59.069 15.062 59.183C14.967 59.278 14.549 59.335 13.941 59.335H13.694V60Z" fill="#EF404E"/>
<path d="M28.3314 57.416C27.6284 58.822 26.9254 59.354 25.8044 59.354C24.3224 59.354 23.5054 58.195 23.5054 56.048H28.9394C28.8064 53.274 27.5524 51.64 25.5194 51.64C23.4484 51.64 21.7764 53.616 21.7764 56.105C21.7764 58.556 23.3154 60.247 25.5574 60.247C27.1534 60.247 28.0844 59.544 28.9394 57.739L28.3314 57.416ZM23.5054 55.326C23.6384 53.407 24.3414 52.343 25.5004 52.343C26.5264 52.343 27.1724 53.217 27.1724 54.604C27.1724 55.25 27.0774 55.326 26.1464 55.326H23.5054Z" fill="#EF404E"/>
<path d="M33.618 58.556C32.155 58.575 31.851 58.442 31.851 57.929C31.851 57.492 32.25 57.226 32.953 57.226C33.067 57.226 33.314 57.226 33.504 57.245C33.732 57.264 33.998 57.264 34.131 57.264C36.107 57.264 37.437 56.143 37.437 54.509C37.437 53.92 37.266 53.483 36.829 52.932L37.038 52.761C37.209 52.609 37.304 52.59 37.38 52.59C37.475 52.59 37.551 52.647 37.57 52.723C37.76 53.274 37.912 53.426 38.311 53.426C38.786 53.426 39.185 53.027 39.185 52.533C39.185 51.982 38.748 51.564 38.159 51.564C37.608 51.564 37.247 51.754 36.411 52.476C35.67 51.925 35.024 51.697 34.15 51.697C32.326 51.697 30.939 52.932 30.939 54.547C30.939 55.63 31.414 56.295 32.478 56.713C32.003 56.789 31.756 56.865 31.509 57.017C30.996 57.321 30.673 57.891 30.673 58.461C30.673 59.278 31.167 59.753 32.212 59.962C30.996 60.133 30.255 60.779 30.255 61.634C30.255 62.736 31.642 63.42 33.808 63.42C36.411 63.42 37.969 62.394 37.969 60.646C37.969 59.981 37.741 59.449 37.323 59.107C36.81 58.67 36.221 58.518 34.986 58.537L33.618 58.556ZM34.207 56.656C33.238 56.656 32.611 55.82 32.611 54.509C32.611 53.16 33.238 52.324 34.226 52.324C35.233 52.324 35.803 53.084 35.803 54.433C35.803 55.763 35.176 56.656 34.207 56.656ZM31.794 61.482C31.794 61.045 32.041 60.608 32.402 60.418C32.744 60.228 33.086 60.171 33.884 60.171C34.91 60.171 35.404 60.19 35.727 60.266C36.354 60.418 36.696 60.779 36.696 61.33C36.696 62.204 35.689 62.736 34.036 62.736C32.573 62.736 31.794 62.299 31.794 61.482Z" fill="#EF404E"/>
<path d="M39.9177 55.934C39.9177 58.214 41.7037 60.19 43.7937 60.19C45.8647 60.19 47.6507 58.233 47.6507 55.953C47.6507 53.578 45.9217 51.64 43.8127 51.64C41.7037 51.64 39.9177 53.597 39.9177 55.934ZM43.7937 59.487C42.4827 59.487 41.6657 58.138 41.6657 55.953C41.6657 53.711 42.4637 52.343 43.7747 52.343C45.1047 52.343 45.9027 53.673 45.9027 55.915C45.9027 56.77 45.7507 57.682 45.4847 58.309C45.1807 59.012 44.5157 59.487 43.7937 59.487Z" fill="#EF404E"/>
<path d="M48.9574 60H53.3084V59.335H53.1564C52.5484 59.335 52.1304 59.278 52.0354 59.183C51.9024 59.069 51.9024 59.069 51.9024 57.435V56.086C51.9024 54.889 52.0164 54.3 52.4154 53.711C52.7764 53.179 53.3274 52.875 53.9544 52.875C54.5434 52.875 54.9614 53.103 55.2084 53.559C55.4554 53.977 55.5314 54.623 55.5314 55.991V57.435C55.5314 59.069 55.5314 59.069 55.3984 59.183C55.3034 59.278 54.8854 59.335 54.3154 59.335H54.1634V60H58.4574V59.335H58.2864C57.6784 59.335 57.2604 59.278 57.1654 59.183C57.0324 59.069 57.0324 59.069 57.0324 57.435V55.554C57.0324 54.338 56.9374 53.692 56.6714 53.065C56.3104 52.21 55.5504 51.754 54.4484 51.754C53.2514 51.754 52.3584 52.419 51.7884 53.73C51.8074 53.654 51.8074 53.578 51.8074 53.54C51.8074 53.16 51.7694 52.324 51.7124 51.792C51.1994 51.83 50.2304 51.887 48.8054 51.944V52.59H49.1854C49.7554 52.59 50.0784 52.666 50.2304 52.818C50.3824 53.008 50.4014 53.008 50.4014 54.528V57.435C50.4014 59.069 50.4014 59.069 50.2684 59.183C50.1734 59.278 49.7554 59.335 49.1474 59.335H48.9574V60Z" fill="#EF404E"/>
</svg>
