<?xml version="1.0" encoding="UTF-8" standalone="no"?> <svg width="64" height="64" viewBox="0 0 64 64" fill="none" xmlns="http://www.w3.org/2000/svg">
<path d="M61 39V44.69C61.0033 44.7937 60.9966 44.8975 60.98 45C60.9173 47.011 60.0872 48.9218 58.66 50.34L58 51V61H44V39H61Z" fill="#CFF09E"/>
<path d="M47 42C46.4696 42 45.9609 41.7893 45.5858 41.4142C45.2107 41.0391 45 40.5304 45 40V33C45 32.4696 45.2107 31.9609 45.5858 31.5858C45.9609 31.2107 46.4696 31 47 31C47.5304 31 48.0391 31.2107 48.4142 31.5858C48.7893 31.9609 49 32.4696 49 33V40C49 40.5304 48.7893 41.0391 48.4142 41.4142C48.0391 41.7893 47.5304 42 47 42Z" fill="white"/>
<path d="M51 41C50.4696 41 49.9609 40.7893 49.5858 40.4142C49.2107 40.0391 49 39.5304 49 39V33C49 32.4696 49.2107 31.9609 49.5858 31.5858C49.9609 31.2107 50.4696 31 51 31C51.5304 31 52.0391 31.2107 52.4142 31.5858C52.7893 31.9609 53 32.4696 53 33V39C53 39.5304 52.7893 40.0391 52.4142 40.4142C52.0391 40.7893 51.5304 41 51 41Z" fill="white"/>
<path d="M55 42C54.4696 42 53.9609 41.7893 53.5858 41.4142C53.2107 41.0391 53 40.5304 53 40V33C53 32.4696 53.2107 31.9609 53.5858 31.5858C53.9609 31.2107 54.4696 31 55 31C55.5304 31 56.0391 31.2107 56.4142 31.5858C56.7893 31.9609 57 32.4696 57 33V40C57 40.5304 56.7893 41.0391 56.4142 41.4142C56.0391 41.7893 55.5304 42 55 42Z" fill="white"/>
<path d="M59 42C58.4696 42 57.9609 41.7893 57.5858 41.4142C57.2107 41.0391 57 40.5304 57 40V33C57 32.4696 57.2107 31.9609 57.5858 31.5858C57.9609 31.2107 58.4696 31 59 31C59.5304 31 60.0391 31.2107 60.4142 31.5858C60.7893 31.9609 61 32.4696 61 33V40C61 40.5304 60.7893 41.0391 60.4142 41.4142C60.0391 41.7893 59.5304 42 59 42Z" fill="white"/>
<path d="M61 40C61 40.5304 60.7893 41.0391 60.4142 41.4142C60.0391 41.7893 59.5304 42 59 42C58.4696 42 57.9609 41.7893 57.5858 41.4142C57.2107 41.0391 57 40.5304 57 40V33C57.0016 32.4701 57.2128 31.9623 57.5875 31.5875C57.9623 31.2128 58.4701 31.0016 59 31V38C59.0016 38.5299 59.2128 39.0377 59.5875 39.4125C59.9623 39.7872 60.4701 39.9984 61 40Z" fill="#CFF09E"/>
<path d="M57 40C57 40.5304 56.7893 41.0391 56.4142 41.4142C56.0391 41.7893 55.5304 42 55 42C54.4696 42 53.9609 41.7893 53.5858 41.4142C53.2107 41.0391 53 40.5304 53 40V33C53.0016 32.4701 53.2128 31.9623 53.5875 31.5875C53.9623 31.2128 54.4701 31.0016 55 31V38C55.0016 38.5299 55.2128 39.0377 55.5875 39.4125C55.9623 39.7872 56.4701 39.9984 57 40Z" fill="#CFF09E"/>
<path d="M53 37V39C53 39.5304 52.7893 40.0391 52.4142 40.4142C52.0391 40.7893 51.5304 41 51 41C50.4696 41 49.9609 40.7893 49.5858 40.4142C49.2107 40.0391 49 39.5304 49 39V33C49.0016 32.4701 49.2128 31.9623 49.5875 31.5875C49.9623 31.2128 50.4701 31.0016 51 31V35C51.0016 35.5299 51.2128 36.0377 51.5875 36.4125C51.9623 36.7872 52.4701 36.9984 53 37V37Z" fill="#CFF09E"/>
<path d="M49 37V39C49 39.5304 48.7893 40.0391 48.4142 40.4142C48.0391 40.7893 47.5304 41 47 41C46.4696 41 45.9609 40.7893 45.5858 40.4142C45.2107 40.0391 45 39.5304 45 39V33C45.0016 32.4701 45.2128 31.9623 45.5875 31.5875C45.9623 31.2128 46.4701 31.0016 47 31V35C47.0016 35.5299 47.2128 36.0377 47.5875 36.4125C47.9623 36.7872 48.4701 36.9984 49 37V37Z" fill="#CFF09E"/>
<path d="M45 42C46.3261 42 47.5979 42.5268 48.5355 43.4645C49.4732 44.4022 50 45.6739 50 47V51C48.1971 51 46.4298 50.4978 44.8962 49.5499C43.3625 48.6019 42.1232 47.2457 41.317 45.633L40.633 44.267C40.2169 43.4338 40.0002 42.5153 40 41.584C40 40.8902 40.1492 40.2044 40.4373 39.5732C40.7254 38.942 41.1458 38.3801 41.67 37.9255C42.1942 37.4709 42.81 37.1343 43.4756 36.9384C44.1412 36.7425 44.8411 36.6919 45.528 36.79L54 38C54 39.0609 53.5786 40.0783 52.8284 40.8284C52.0783 41.5786 51.0609 42 50 42H45Z" fill="white"/>
<path d="M53 58.9999C52.0807 58.9999 51.1705 58.8189 50.3212 58.4671C49.4719 58.1153 48.7003 57.5997 48.0503 56.9497C47.4002 56.2997 46.8846 55.528 46.5328 54.6787C46.1811 53.8295 46 52.9192 46 51.9999C46 51.6699 45.99 51.3299 45.96 50.9999C45.8311 49.371 45.3897 47.782 44.66 46.3199L44 44.9999L42.63 42.2699C42.1665 41.33 41.9529 40.2864 42.01 39.2399C42.0471 38.5694 42.2278 37.9146 42.54 37.3199C41.7728 37.7361 41.132 38.3514 40.685 39.1011C40.238 39.8508 40.0014 40.7071 40 41.5799C40.0018 42.513 40.2173 43.4332 40.63 44.2699L44 50.9999V60.9999H58V58.9999H53Z" fill="#CFF09E"/>
<path d="M50 51C50 49.4087 50.6321 47.8826 51.7574 46.7574C52.8826 45.6321 54.4087 45 56 45H60.98V45.06C60.8941 46.4937 60.287 47.8464 59.2731 48.8637C58.2592 49.8809 56.9084 50.4924 55.475 50.583L50 51Z" fill="white"/>
<path d="M38 20V25.69C38.0033 25.7937 37.9966 25.8975 37.98 26C37.9173 28.011 37.0872 29.9218 35.66 31.34L35 32V61H21V20H38Z" fill="#CFF09E"/>
<path d="M24 23C23.4696 23 22.9609 22.7893 22.5858 22.4142C22.2107 22.0391 22 21.5304 22 21V14C22 13.4696 22.2107 12.9609 22.5858 12.5858C22.9609 12.2107 23.4696 12 24 12V12C24.5304 12 25.0391 12.2107 25.4142 12.5858C25.7893 12.9609 26 13.4696 26 14V21C26 21.5304 25.7893 22.0391 25.4142 22.4142C25.0391 22.7893 24.5304 23 24 23Z" fill="white"/>
<path d="M28 22C27.4696 22 26.9609 21.7893 26.5858 21.4142C26.2107 21.0391 26 20.5304 26 20V14C26 13.4696 26.2107 12.9609 26.5858 12.5858C26.9609 12.2107 27.4696 12 28 12V12C28.5304 12 29.0391 12.2107 29.4142 12.5858C29.7893 12.9609 30 13.4696 30 14V20C30 20.5304 29.7893 21.0391 29.4142 21.4142C29.0391 21.7893 28.5304 22 28 22Z" fill="white"/>
<path d="M32 23C31.4696 23 30.9609 22.7893 30.5858 22.4142C30.2107 22.0391 30 21.5304 30 21V14C30 13.4696 30.2107 12.9609 30.5858 12.5858C30.9609 12.2107 31.4696 12 32 12V12C32.5304 12 33.0391 12.2107 33.4142 12.5858C33.7893 12.9609 34 13.4696 34 14V21C34 21.5304 33.7893 22.0391 33.4142 22.4142C33.0391 22.7893 32.5304 23 32 23Z" fill="white"/>
<path d="M36 23C35.4696 23 34.9609 22.7893 34.5858 22.4142C34.2107 22.0391 34 21.5304 34 21V14C34 13.4696 34.2107 12.9609 34.5858 12.5858C34.9609 12.2107 35.4696 12 36 12V12C36.5304 12 37.0391 12.2107 37.4142 12.5858C37.7893 12.9609 38 13.4696 38 14V21C38 21.5304 37.7893 22.0391 37.4142 22.4142C37.0391 22.7893 36.5304 23 36 23Z" fill="white"/>
<path d="M38 21C38 21.5304 37.7893 22.0391 37.4142 22.4142C37.0391 22.7893 36.5304 23 36 23C35.4696 23 34.9609 22.7893 34.5858 22.4142C34.2107 22.0391 34 21.5304 34 21V14C34.0016 13.4701 34.2128 12.9623 34.5875 12.5875C34.9623 12.2128 35.4701 12.0016 36 12V19C36.0016 19.5299 36.2128 20.0377 36.5875 20.4125C36.9623 20.7872 37.4701 20.9984 38 21V21Z" fill="#CFF09E"/>
<path d="M34 21C34 21.5304 33.7893 22.0391 33.4142 22.4142C33.0391 22.7893 32.5304 23 32 23C31.4696 23 30.9609 22.7893 30.5858 22.4142C30.2107 22.0391 30 21.5304 30 21V14C30.0016 13.4701 30.2128 12.9623 30.5875 12.5875C30.9623 12.2128 31.4701 12.0016 32 12V19C32.0016 19.5299 32.2128 20.0377 32.5875 20.4125C32.9623 20.7872 33.4701 20.9984 34 21V21Z" fill="#CFF09E"/>
<path d="M30 18V20C30 20.5304 29.7893 21.0391 29.4142 21.4142C29.0391 21.7893 28.5304 22 28 22C27.4696 22 26.9609 21.7893 26.5858 21.4142C26.2107 21.0391 26 20.5304 26 20V14C26.0016 13.4701 26.2128 12.9623 26.5875 12.5875C26.9623 12.2128 27.4701 12.0016 28 12V16C28.0016 16.5299 28.2128 17.0377 28.5875 17.4125C28.9623 17.7872 29.4701 17.9984 30 18V18Z" fill="#CFF09E"/>
<path d="M26 18V20C26 20.5304 25.7893 21.0391 25.4142 21.4142C25.0391 21.7893 24.5304 22 24 22C23.4696 22 22.9609 21.7893 22.5858 21.4142C22.2107 21.0391 22 20.5304 22 20V14C22.0016 13.4701 22.2128 12.9623 22.5875 12.5875C22.9623 12.2128 23.4701 12.0016 24 12V16C24.0016 16.5299 24.2128 17.0377 24.5875 17.4125C24.9623 17.7872 25.4701 17.9984 26 18V18Z" fill="#CFF09E"/>
<path d="M22 23C23.3261 23 24.5979 23.5268 25.5355 24.4645C26.4732 25.4022 27 26.6739 27 28V32C25.1971 32 23.4298 31.4978 21.8962 30.5499C20.3625 29.6019 19.1232 28.2457 18.317 26.633L17.633 25.267C17.2169 24.4338 17.0002 23.5153 17 22.584C17 21.8902 17.1492 21.2044 17.4373 20.5732C17.7254 19.942 18.1458 19.3801 18.67 18.9255C19.1942 18.4709 19.81 18.1343 20.4756 17.9384C21.1412 17.7425 21.8411 17.6919 22.528 17.79L31 19C31 20.0609 30.5786 21.0783 29.8284 21.8284C29.0783 22.5786 28.0609 23 27 23H22Z" fill="white"/>
<path d="M30 39.9999C28.1435 39.9999 26.363 39.2625 25.0503 37.9497C23.7375 36.6369 23 34.8565 23 32.9999C23 32.6699 22.99 32.3299 22.96 31.9999C22.8311 30.371 22.3897 28.782 21.66 27.3199L21 25.9999L19.63 23.2699C19.1665 22.33 18.9529 21.2864 19.01 20.2399C19.0471 19.5694 19.2278 18.9146 19.54 18.3199C18.7728 18.7361 18.132 19.3514 17.685 20.1011C17.238 20.8508 17.0014 21.7071 17 22.5799C17.0018 23.513 17.2173 24.4332 17.63 25.2699L21 31.9999V60.9999H35V39.9999H30Z" fill="#CFF09E"/>
<path d="M27 32C27 30.4087 27.6321 28.8826 28.7574 27.7574C29.8826 26.6321 31.4087 26 33 26H37.98V26.06C37.8941 27.4937 37.287 28.8464 36.2731 29.8637C35.2592 30.8809 33.9084 31.4924 32.475 31.583L27 32Z" fill="white"/>
<path d="M24 43V48.69C24.0033 48.7937 23.9966 48.8975 23.98 49C23.9173 51.011 23.0872 52.9218 21.66 54.34L21 55V61H7V43H24Z" fill="#CFF09E"/>
<path d="M10 46C9.46957 46 8.96086 45.7893 8.58579 45.4142C8.21071 45.0391 8 44.5304 8 44V37C8 36.4696 8.21071 35.9609 8.58579 35.5858C8.96086 35.2107 9.46957 35 10 35C10.5304 35 11.0391 35.2107 11.4142 35.5858C11.7893 35.9609 12 36.4696 12 37V44C12 44.5304 11.7893 45.0391 11.4142 45.4142C11.0391 45.7893 10.5304 46 10 46Z" fill="white"/>
<path d="M14 45C13.4696 45 12.9609 44.7893 12.5858 44.4142C12.2107 44.0391 12 43.5304 12 43V37C12 36.4696 12.2107 35.9609 12.5858 35.5858C12.9609 35.2107 13.4696 35 14 35C14.5304 35 15.0391 35.2107 15.4142 35.5858C15.7893 35.9609 16 36.4696 16 37V43C16 43.5304 15.7893 44.0391 15.4142 44.4142C15.0391 44.7893 14.5304 45 14 45Z" fill="white"/>
<path d="M18 46C17.4696 46 16.9609 45.7893 16.5858 45.4142C16.2107 45.0391 16 44.5304 16 44V37C16 36.4696 16.2107 35.9609 16.5858 35.5858C16.9609 35.2107 17.4696 35 18 35V35C18.5304 35 19.0391 35.2107 19.4142 35.5858C19.7893 35.9609 20 36.4696 20 37V44C20 44.5304 19.7893 45.0391 19.4142 45.4142C19.0391 45.7893 18.5304 46 18 46Z" fill="white"/>
<path d="M22 46C21.4696 46 20.9609 45.7893 20.5858 45.4142C20.2107 45.0391 20 44.5304 20 44V37C20 36.4696 20.2107 35.9609 20.5858 35.5858C20.9609 35.2107 21.4696 35 22 35V35C22.5304 35 23.0391 35.2107 23.4142 35.5858C23.7893 35.9609 24 36.4696 24 37V44C24 44.5304 23.7893 45.0391 23.4142 45.4142C23.0391 45.7893 22.5304 46 22 46Z" fill="white"/>
<path d="M24 44C24 44.5304 23.7893 45.0391 23.4142 45.4142C23.0391 45.7893 22.5304 46 22 46C21.4696 46 20.9609 45.7893 20.5858 45.4142C20.2107 45.0391 20 44.5304 20 44V37C20.0016 36.4701 20.2128 35.9623 20.5875 35.5875C20.9623 35.2128 21.4701 35.0016 22 35V42C22.0016 42.5299 22.2128 43.0377 22.5875 43.4125C22.9623 43.7872 23.4701 43.9984 24 44V44Z" fill="#CFF09E"/>
<path d="M20 44C20 44.5304 19.7893 45.0391 19.4142 45.4142C19.0391 45.7893 18.5304 46 18 46C17.4696 46 16.9609 45.7893 16.5858 45.4142C16.2107 45.0391 16 44.5304 16 44V37C16.0016 36.4701 16.2128 35.9623 16.5875 35.5875C16.9623 35.2128 17.4701 35.0016 18 35V42C18.0016 42.5299 18.2128 43.0377 18.5875 43.4125C18.9623 43.7872 19.4701 43.9984 20 44V44Z" fill="#CFF09E"/>
<path d="M16 41V43C16 43.5304 15.7893 44.0391 15.4142 44.4142C15.0391 44.7893 14.5304 45 14 45C13.4696 45 12.9609 44.7893 12.5858 44.4142C12.2107 44.0391 12 43.5304 12 43V37C12.0016 36.4701 12.2128 35.9623 12.5875 35.5875C12.9623 35.2128 13.4701 35.0016 14 35V39C14.0016 39.5299 14.2128 40.0377 14.5875 40.4125C14.9623 40.7872 15.4701 40.9984 16 41V41Z" fill="#CFF09E"/>
<path d="M12 41V43C12 43.5304 11.7893 44.0391 11.4142 44.4142C11.0391 44.7893 10.5304 45 10 45C9.46957 45 8.96086 44.7893 8.58579 44.4142C8.21071 44.0391 8 43.5304 8 43V37C8.00158 36.4701 8.2128 35.9623 8.58753 35.5875C8.96227 35.2128 9.47005 35.0016 10 35V39C10.0016 39.5299 10.2128 40.0377 10.5875 40.4125C10.9623 40.7872 11.4701 40.9984 12 41V41Z" fill="#CFF09E"/>
<path d="M8 46C9.32608 46 10.5979 46.5268 11.5355 47.4645C12.4732 48.4022 13 49.6739 13 51V55C11.1971 55 9.42977 54.4978 7.89616 53.5499C6.36254 52.6019 5.12319 51.2457 4.317 49.633L3.633 48.267C3.21687 47.4338 3.00016 46.5153 3 45.584C3.00004 44.8902 3.14918 44.2044 3.43731 43.5732C3.72543 42.942 4.14582 42.3801 4.67001 41.9255C5.1942 41.4709 5.80995 41.1343 6.47557 40.9384C7.14119 40.7425 7.84113 40.6919 8.528 40.79L17 42C17 43.0609 16.5786 44.0783 15.8284 44.8284C15.0783 45.5786 14.0609 46 13 46H8Z" fill="white"/>
<path d="M11.079 56.9999C10.5404 56.9953 10.0234 56.7879 9.63089 56.4191C9.23838 56.0503 8.9992 55.5472 8.961 55.0099V54.9999C8.8321 53.371 8.39074 51.782 7.661 50.3199L7 48.9999L5.63 46.2699C5.16647 45.33 4.95294 44.2864 5.01 43.2399C5.0471 42.5694 5.22784 41.9146 5.54 41.3199C4.77279 41.7361 4.13196 42.3514 3.68497 43.1011C3.23798 43.8508 3.00135 44.7071 3 45.5799C3.00179 46.513 3.2173 47.4332 3.63 48.2699L7 54.9999V60.9999H21V56.9999H11.079Z" fill="#CFF09E"/>
<path d="M13 55C13 53.4087 13.6321 51.8826 14.7574 50.7574C15.8826 49.6321 17.4087 49 19 49H23.98V49.06C23.8941 50.4937 23.287 51.8464 22.2731 52.8637C21.2592 53.8809 19.9084 54.4924 18.475 54.583L13 55Z" fill="white"/>
<path d="M49 3.00001C47.0068 2.99818 45.0445 3.49313 43.2906 4.44012C41.5367 5.38712 40.0465 6.75628 38.9546 8.42386C37.8627 10.0914 37.2037 12.0048 37.037 13.9911C36.8703 15.9773 37.2013 17.9738 38 19.8L34 27L41.873 24.638C43.3985 25.7666 45.17 26.5171 47.042 26.828C48.9139 27.1388 50.833 27.0011 52.6413 26.4261C54.4497 25.8512 56.0959 24.8554 57.4447 23.5205C58.7934 22.1857 59.8062 20.5499 60.3998 18.7475C60.9935 16.9452 61.151 15.0277 60.8596 13.1526C60.5681 11.2775 59.8359 9.49837 58.7232 7.96126C57.6105 6.42415 56.1489 5.17297 54.4587 4.31051C52.7684 3.44805 50.8976 2.99891 49 3.00001V3.00001Z" fill="#79BD9A"/>
<path d="M59 30C58.2591 30.003 57.546 30.2822 57 30.783C56.4562 30.2788 55.7416 29.999 55 30C54.2591 30.003 53.546 30.2822 53 30.783C52.4562 30.2788 51.7416 29.999 51 30C50.2591 30.003 49.546 30.2822 49 30.783C48.4562 30.2788 47.7416 29.999 47 30C46.2044 30 45.4413 30.3161 44.8787 30.8787C44.3161 31.4413 44 32.2044 44 33V35.81C42.6109 36.0083 41.3401 36.7016 40.4214 37.7623C39.5027 38.823 38.998 40.1798 39 41.583C39.0009 42.6698 39.2539 43.7415 39.739 44.714L43 51.236V61C43 61.2652 43.1054 61.5196 43.2929 61.7071C43.4804 61.8946 43.7348 62 44 62C44.2652 62 44.5196 61.8946 44.7071 61.7071C44.8947 61.5196 45 61.2652 45 61V51C45.0017 50.8453 44.9675 50.6923 44.9 50.553L41.528 43.82C41.1819 43.125 41.0012 42.3594 41 41.583C41.0008 41.0329 41.1197 40.4893 41.3486 39.9891C41.5775 39.4888 41.9111 39.0436 42.3269 38.6833C42.7427 38.3231 43.2309 38.0563 43.7587 37.901C44.2864 37.7457 44.8414 37.7054 45.386 37.783L52.877 38.854C52.6922 39.4736 52.3124 40.0171 51.7941 40.4037C51.2758 40.7903 50.6466 40.9994 50 41H45C44.7348 41 44.4804 41.1054 44.2929 41.2929C44.1054 41.4804 44 41.7348 44 42C44 42.2652 44.1054 42.5196 44.2929 42.7071C44.4804 42.8946 44.7348 43 45 43C46.0609 43 47.0783 43.4214 47.8284 44.1716C48.5786 44.9217 49 45.9391 49 47C49 47.2652 49.1054 47.5196 49.2929 47.7071C49.4804 47.8946 49.7348 48 50 48C50.2652 48 50.5196 47.8946 50.7071 47.7071C50.8946 47.5196 51 47.2652 51 47C51.0009 45.5232 50.4552 44.0983 49.468 43H50C51.0235 42.9989 52.0216 42.6818 52.858 42.092C53.3953 42.6493 54.1292 42.9746 54.903 42.9985C55.6768 43.0225 56.4293 42.7431 57 42.22C57.3949 42.5889 57.8848 42.8404 58.4147 42.9464C58.9446 43.0524 59.4936 43.0086 60 42.82V44.69C60.0026 45.6083 59.823 46.5181 59.4716 47.3665C59.1202 48.215 58.6041 48.9853 57.953 49.633L57.293 50.293C57.1055 50.4805 57.0001 50.7348 57 51V61C57 61.2652 57.1054 61.5196 57.2929 61.7071C57.4804 61.8946 57.7348 62 58 62C58.2652 62 58.5196 61.8946 58.7071 61.7071C58.8946 61.5196 59 61.2652 59 61V51.414L59.367 51.047C60.2045 50.2142 60.8684 49.2235 61.3204 48.1323C61.7723 47.0411 62.0033 45.8711 62 44.69V33C62 32.2044 61.6839 31.4413 61.1213 30.8787C60.5587 30.3161 59.7957 30 59 30V30ZM51 32C51.1333 31.9996 51.2653 32.0265 51.3878 32.0791C51.5102 32.1318 51.6206 32.209 51.712 32.306C51.8044 32.3963 51.8775 32.5043 51.927 32.6236C51.9765 32.7428 52.0013 32.8709 52 33V36.7L50 36.415V33C50 32.7348 50.1054 32.4804 50.2929 32.2929C50.4804 32.1054 50.7348 32 51 32V32ZM47 32C47.1333 31.9996 47.2653 32.0265 47.3878 32.0791C47.5102 32.1318 47.6206 32.209 47.712 32.306C47.8044 32.3963 47.8775 32.5043 47.927 32.6236C47.9765 32.7428 48.0013 32.8709 48 33V36.133L46 35.847V33C46 32.7348 46.1054 32.4804 46.2929 32.2929C46.4804 32.1054 46.7348 32 47 32V32ZM55 41C54.8529 40.9983 54.708 40.9638 54.5758 40.8991C54.4437 40.8345 54.3276 40.7411 54.236 40.626C54.7321 39.8397 54.9968 38.9297 55 38C55 37.7594 54.9133 37.5268 54.7557 37.3449C54.5981 37.1631 54.3802 37.0442 54.142 37.01L54 36.99V33C54 32.7348 54.1054 32.4804 54.2929 32.2929C54.4804 32.1054 54.7348 32 55 32C55.1333 31.9996 55.2653 32.0265 55.3878 32.0791C55.5102 32.1318 55.6206 32.209 55.712 32.306C55.8044 32.3963 55.8775 32.5043 55.927 32.6236C55.9765 32.7428 56.0013 32.8709 56 33V40C56 40.2652 55.8946 40.5196 55.7071 40.7071C55.5196 40.8946 55.2652 41 55 41ZM59 41C58.7348 41 58.4804 40.8946 58.2929 40.7071C58.1054 40.5196 58 40.2652 58 40V33C58 32.7348 58.1054 32.4804 58.2929 32.2929C58.4804 32.1054 58.7348 32 59 32C59.2652 32 59.5196 32.1054 59.7071 32.2929C59.8946 32.4804 60 32.7348 60 33V40C60 40.2652 59.8946 40.5196 59.7071 40.7071C59.5196 40.8946 59.2652 41 59 41Z" fill="#3B8686"/>
<path d="M41.692 25.736C43.8421 27.2142 46.3908 28.0038 49 28C51.4016 28.0004 53.7563 27.3356 55.8031 26.0793C57.8498 24.823 59.5085 23.0242 60.5953 20.8826C61.682 18.741 62.1542 16.3402 61.9596 13.9465C61.765 11.5528 60.9111 9.25984 59.4927 7.3219C58.0743 5.38396 56.1467 3.87681 53.9239 2.96762C51.7011 2.05843 49.2699 1.78274 46.8999 2.17114C44.53 2.55954 42.3139 3.59684 40.4976 5.16798C38.6813 6.73912 37.3356 8.78269 36.61 11.072C36.4098 11.0266 36.2053 11.0024 36 11C35.2591 11.003 34.546 11.2822 34 11.783C33.4562 11.2788 32.7416 10.999 32 11C31.2591 11.003 30.546 11.2822 30 11.783C29.4562 11.2788 28.7416 10.999 28 11C27.2591 11.003 26.546 11.2822 26 11.783C25.4562 11.2788 24.7416 10.999 24 11C23.2044 11 22.4413 11.3161 21.8787 11.8787C21.3161 12.4413 21 13.2044 21 14V16.809C19.6109 17.0078 18.3402 17.7013 17.4216 18.7621C16.5029 19.8229 15.9981 21.1797 16 22.583C16.0009 23.6698 16.2539 24.7415 16.739 25.714L20 32.236V34.78C19.4557 34.2769 18.7412 33.9982 18 34C17.2591 34.003 16.546 34.2822 16 34.783C15.4562 34.2788 14.7416 33.999 14 34C13.2591 34.003 12.546 34.2822 12 34.783C11.4562 34.2788 10.7416 33.999 10 34C9.20436 34 8.44129 34.3161 7.87868 34.8787C7.31608 35.4413 7.00001 36.2044 7.00001 37V39.809C5.61087 40.0077 4.34017 40.7013 3.42155 41.7621C2.50293 42.8229 1.99815 44.1797 2.00001 45.583C2.00095 46.6698 2.25391 47.7415 2.73901 48.714L6.00001 55.236V61C6.00001 61.2652 6.10536 61.5196 6.2929 61.7071C6.48044 61.8946 6.73479 62 7.00001 62C7.26522 62 7.51958 61.8946 7.70711 61.7071C7.89465 61.5196 8.00001 61.2652 8.00001 61V55C8.00015 54.8449 7.9642 54.6918 7.89501 54.553L4.528 47.82C4.18192 47.125 4.00121 46.3594 4.00001 45.583C4.00081 45.0329 4.11968 44.4893 4.34859 43.9891C4.5775 43.4888 4.91112 43.0436 5.3269 42.6833C5.74268 42.3231 6.23094 42.0563 6.75869 41.901C7.28644 41.7457 7.84137 41.7054 8.386 41.783L15.877 42.854C15.6922 43.4736 15.3124 44.0171 14.7941 44.4037C14.2758 44.7903 13.6466 44.9994 13 45H8.00001C7.73479 45 7.48044 45.1054 7.2929 45.2929C7.10536 45.4804 7.00001 45.7348 7.00001 46C7.00001 46.2652 7.10536 46.5196 7.2929 46.7071C7.48044 46.8946 7.73479 47 8.00001 47C9.06087 47 10.0783 47.4214 10.8284 48.1716C11.5786 48.9217 12 49.9391 12 51C12 51.2652 12.1054 51.5196 12.2929 51.7071C12.4804 51.8946 12.7348 52 13 52C13.2652 52 13.5196 51.8946 13.7071 51.7071C13.8946 51.5196 14 51.2652 14 51C14.0009 49.5232 13.4552 48.0983 12.468 47H13C14.0235 46.9989 15.0216 46.6818 15.858 46.092C16.3953 46.6493 17.1292 46.9746 17.903 46.9985C18.6768 47.0225 19.4293 46.7431 20 46.22C20.3949 46.5889 20.8848 46.8404 21.4147 46.9464C21.9446 47.0524 22.4936 47.0086 23 46.82V48.69C23.0026 49.6083 22.823 50.5181 22.4716 51.3665C22.1202 52.215 21.6041 52.9853 20.953 53.633L20.293 54.293C20.1055 54.4805 20.0001 54.7348 20 55V61C20 61.2652 20.1054 61.5196 20.2929 61.7071C20.4804 61.8946 20.7348 62 21 62C21.2652 62 21.5196 61.8946 21.7071 61.7071C21.8946 61.5196 22 61.2652 22 61V55.414L22.367 55.047C23.2045 54.2142 23.8684 53.2235 24.3204 52.1323C24.7723 51.0411 25.0033 49.8711 25 48.69V37C25 36.2044 24.6839 35.4413 24.1213 34.8787C23.5587 34.3161 22.7957 34 22 34V32C22.0002 31.8449 21.9642 31.6918 21.895 31.553L18.528 24.82C18.1819 24.125 18.0012 23.3594 18 22.583C18.0008 22.0329 18.1197 21.4893 18.3486 20.9891C18.5775 20.4888 18.9111 20.0436 19.3269 19.6833C19.7427 19.3231 20.2309 19.0563 20.7587 18.901C21.2864 18.7457 21.8414 18.7054 22.386 18.783L29.877 19.854C29.6922 20.4736 29.3124 21.0171 28.7941 21.4037C28.2758 21.7903 27.6466 21.9994 27 22H22C21.7348 22 21.4804 22.1054 21.2929 22.2929C21.1054 22.4804 21 22.7348 21 23C21 23.2652 21.1054 23.5196 21.2929 23.7071C21.4804 23.8946 21.7348 24 22 24C23.0609 24 24.0783 24.4214 24.8284 25.1716C25.5786 25.9217 26 26.9391 26 28C26 28.2652 26.1054 28.5196 26.2929 28.7071C26.4804 28.8946 26.7348 29 27 29C27.2652 29 27.5196 28.8946 27.7071 28.7071C27.8946 28.5196 28 28.2652 28 28C28.0009 26.5232 27.4552 25.0983 26.468 24H27C28.0235 23.999 29.0216 23.6818 29.858 23.092C30.3953 23.6493 31.1292 23.9746 31.903 23.9985C32.6768 24.0225 33.4293 23.7431 34 23.22C34.2102 23.4084 34.4458 23.5663 34.7 23.689L33.13 26.514C33.0455 26.6659 33.0021 26.8373 33.004 27.0111C33.0059 27.1849 33.0532 27.3552 33.141 27.5053C33.2288 27.6553 33.3542 27.7798 33.5049 27.8666C33.6555 27.9533 33.8262 27.9993 34 28C34.0972 27.9999 34.1938 27.9857 34.287 27.958L36.831 27.195C36.5485 28.4977 35.8965 29.6914 34.953 30.633L34.293 31.293C34.1055 31.4805 34.0001 31.7348 34 32V61C34 61.2652 34.1054 61.5196 34.2929 61.7071C34.4804 61.8946 34.7348 62 35 62C35.2652 62 35.5196 61.8946 35.7071 61.7071C35.8946 61.5196 36 61.2652 36 61V32.414L36.367 32.047C37.8416 30.575 38.755 28.6336 38.949 26.559L41.692 25.736ZM14 36C14.1333 35.9996 14.2653 36.0265 14.3877 36.0791C14.5102 36.1318 14.6206 36.209 14.712 36.306C14.8043 36.3963 14.8775 36.5043 14.927 36.6236C14.9765 36.7428 15.0013 36.8709 15 37V40.7L13 40.415V37C13 36.7348 13.1054 36.4804 13.2929 36.2929C13.4804 36.1054 13.7348 36 14 36V36ZM10 36C10.1333 35.9996 10.2653 36.0265 10.3877 36.0791C10.5102 36.1318 10.6206 36.209 10.712 36.306C10.8043 36.3963 10.8775 36.5043 10.927 36.6236C10.9765 36.7428 11.0013 36.8709 11 37V40.133L9.00001 39.847V37C9.00001 36.7348 9.10536 36.4804 9.2929 36.2929C9.48044 36.1054 9.73479 36 10 36V36ZM18 45C17.8529 44.9983 17.708 44.9638 17.5758 44.8991C17.4437 44.8345 17.3276 44.7411 17.236 44.626C17.7321 43.8397 17.9968 42.9297 18 42C18 41.7594 17.9133 41.5268 17.7557 41.3449C17.5981 41.1631 17.3802 41.0442 17.142 41.01L17 40.99V37C17 36.7348 17.1054 36.4804 17.2929 36.2929C17.4804 36.1054 17.7348 36 18 36C18.1333 35.9996 18.2653 36.0265 18.3878 36.0791C18.5102 36.1318 18.6206 36.209 18.712 36.306C18.8043 36.3963 18.8775 36.5043 18.927 36.6236C18.9765 36.7428 19.0013 36.8709 19 37V44C19 44.2652 18.8946 44.5196 18.7071 44.7071C18.5196 44.8946 18.2652 45 18 45ZM23 37V44C23 44.2652 22.8946 44.5196 22.7071 44.7071C22.5196 44.8946 22.2652 45 22 45C21.7348 45 21.4804 44.8946 21.2929 44.7071C21.1054 44.5196 21 44.2652 21 44V37C21 36.7348 21.1054 36.4804 21.2929 36.2929C21.4804 36.1054 21.7348 36 22 36C22.2652 36 22.5196 36.1054 22.7071 36.2929C22.8946 36.4804 23 36.7348 23 37ZM28 13C28.1333 12.9996 28.2653 13.0265 28.3878 13.0791C28.5102 13.1318 28.6206 13.209 28.712 13.306C28.8043 13.3963 28.8775 13.5043 28.927 13.6236C28.9765 13.7428 29.0013 13.8709 29 14V17.7L27 17.415V14C27 13.7348 27.1054 13.4804 27.2929 13.2929C27.4804 13.1054 27.7348 13 28 13ZM24 13C24.1333 12.9996 24.2653 13.0265 24.3878 13.0791C24.5102 13.1318 24.6206 13.209 24.712 13.306C24.8043 13.3963 24.8775 13.5043 24.927 13.6236C24.9765 13.7428 25.0013 13.8709 25 14V17.133L23 16.847V14C23 13.7348 23.1054 13.4804 23.2929 13.2929C23.4804 13.1054 23.7348 13 24 13ZM32 22C31.8529 21.9983 31.708 21.9638 31.5758 21.8991C31.4437 21.8345 31.3276 21.7412 31.236 21.626C31.7321 20.8397 31.9968 19.9297 32 19C32 18.7594 31.9133 18.5268 31.7557 18.3449C31.5981 18.1631 31.3802 18.0442 31.142 18.01L31 17.99V14C31 13.7348 31.1054 13.4804 31.2929 13.2929C31.4804 13.1054 31.7348 13 32 13C32.1333 12.9996 32.2653 13.0265 32.3878 13.0791C32.5102 13.1318 32.6206 13.209 32.712 13.306C32.8044 13.3963 32.8775 13.5043 32.927 13.6236C32.9765 13.7428 33.0013 13.8709 33 14V21C33 21.2652 32.8946 21.5196 32.7071 21.7071C32.5196 21.8946 32.2652 22 32 22ZM35 21V14C35 13.7348 35.1054 13.4804 35.2929 13.2929C35.4804 13.1054 35.7348 13 36 13C36.056 13.0058 36.1113 13.0172 36.165 13.034C35.7954 15.2922 36.0478 17.6084 36.895 19.734L35.671 21.934C35.476 21.8673 35.3066 21.7415 35.1863 21.5742C35.0661 21.4068 35.001 21.2061 35 21V21ZM38.877 20.281C38.9517 20.1465 38.9943 19.9966 39.0016 19.8429C39.0089 19.6892 38.9806 19.536 38.919 19.395C37.8372 16.9372 37.6865 14.1697 38.4951 11.6089C39.3036 9.04818 41.0161 6.86899 43.3131 5.47793C45.61 4.08687 48.3347 3.57894 50.9786 4.0489C53.6225 4.51887 56.0052 5.93462 57.6821 8.03206C59.359 10.1295 60.2156 12.7653 60.0921 15.4479C59.9686 18.1304 58.8735 20.6764 57.0109 22.6109C55.1484 24.5454 52.6457 25.7362 49.9698 25.9613C47.2939 26.1863 44.6275 25.4302 42.468 23.834C42.3431 23.7416 42.1983 23.6795 42.0452 23.6528C41.8921 23.626 41.7349 23.6354 41.586 23.68L36.069 25.335L38.877 20.281Z" fill="#3B8686"/>
<path d="M48 15.8V18.9H46C45.7348 18.9 45.4804 19.0053 45.2929 19.1929C45.1054 19.3804 45 19.6348 45 19.9C45 20.1652 45.1054 20.4196 45.2929 20.6071C45.4804 20.7946 45.7348 20.9 46 20.9H48V22.9C48 23.1652 48.1054 23.4196 48.2929 23.6071C48.4804 23.7946 48.7348 23.9 49 23.9C49.2652 23.9 49.5196 23.7946 49.7071 23.6071C49.8947 23.4196 50 23.1652 50 22.9V20.9H52C52.2652 20.9 52.5196 20.7946 52.7071 20.6071C52.8947 20.4196 53 20.1652 53 19.9C53 19.6348 52.8947 19.3804 52.7071 19.1929C52.5196 19.0053 52.2652 18.9 52 18.9H50V15.8C51.2141 15.5522 52.2928 14.8624 53.0272 13.8644C53.7616 12.8664 54.0992 11.6313 53.9747 10.3985C53.8502 9.16565 53.2723 8.02301 52.3532 7.19204C51.434 6.36108 50.2391 5.901 49 5.901C47.7609 5.901 46.566 6.36108 45.6469 7.19204C44.7277 8.02301 44.1499 9.16565 44.0253 10.3985C43.9008 11.6313 44.2384 12.8664 44.9728 13.8644C45.7072 14.8624 46.786 15.5522 48 15.8ZM49 7.89998C49.5934 7.89998 50.1734 8.07593 50.6667 8.40557C51.1601 8.73522 51.5446 9.20375 51.7716 9.75193C51.9987 10.3001 52.0581 10.9033 51.9424 11.4853C51.8266 12.0672 51.5409 12.6017 51.1213 13.0213C50.7018 13.4409 50.1672 13.7266 49.5853 13.8423C49.0033 13.9581 48.4001 13.8987 47.852 13.6716C47.3038 13.4446 46.8352 13.06 46.5056 12.5667C46.176 12.0733 46 11.4933 46 10.9C46 10.1043 46.3161 9.34127 46.8787 8.77866C47.4413 8.21605 48.2044 7.89998 49 7.89998Z" fill="#3B8686"/>
</svg>
